<svg width="511" height="76" viewBox="0 0 511 76" fill="none" xmlns="http://www.w3.org/2000/svg">
<path d="M24.7547 74V2.4H27.9547V74H24.7547ZM0.754688 4V0.999998H51.9547V4H0.754688ZM68.1719 74V0.799995H71.3719V74H68.1719ZM113.972 74L87.4719 42.2H91.3719L117.972 74H113.972ZM69.4719 43.8V40.8H89.0719C93.8052 40.8 97.5385 39.9667 100.272 38.3C103.072 36.6333 105.072 34.4 106.272 31.6C107.539 28.8 108.172 25.7 108.172 22.3C108.172 18.9 107.539 15.8 106.272 13C105.072 10.2 103.072 7.96666 100.272 6.3C97.5385 4.63333 93.8052 3.8 89.0719 3.8H69.4719V0.799995H88.8719C94.2719 0.799995 98.6052 1.76666 101.872 3.7C105.205 5.63333 107.605 8.2 109.072 11.4C110.605 14.6 111.372 18.0667 111.372 21.8V22.8C111.372 26.5333 110.605 30 109.072 33.2C107.605 36.4 105.205 38.9667 101.872 40.9C98.6052 42.8333 94.2719 43.8 88.8719 43.8H69.4719ZM125.583 74L153.683 0.999998H161.483L190.583 74H187.283L158.783 2.5L161.383 4H153.583L156.183 2.5L128.783 74H125.583ZM137.383 48L138.483 45H177.083L178.283 48H137.383ZM209.12 74.3V71.3H232.42C238.354 71.3 243.42 70.3667 247.62 68.5C251.887 66.5667 255.354 64 258.02 60.8C260.754 57.5333 262.754 53.9 264.02 49.9C265.354 45.8333 266.02 41.6667 266.02 37.4C266.02 33 265.354 28.8 264.02 24.8C262.687 20.7333 260.62 17.1333 257.82 14C255.087 10.8 251.62 8.3 247.42 6.5C243.22 4.7 238.22 3.8 232.42 3.8H209.12V0.799995H232.02C238.42 0.799995 243.954 1.8 248.62 3.8C253.287 5.8 257.154 8.49999 260.22 11.9C263.287 15.3 265.554 19.1667 267.02 23.5C268.487 27.7667 269.22 32.1667 269.22 36.7V38C269.22 42.4 268.52 46.7667 267.12 51.1C265.72 55.3667 263.52 59.2667 260.52 62.8C257.52 66.2667 253.654 69.0667 248.92 71.2C244.254 73.2667 238.62 74.3 232.02 74.3H209.12ZM207.82 74.3V0.799995H211.02V74.3H207.82ZM315.491 75.6C308.825 75.6 303.358 74.3333 299.091 71.8C294.891 69.2667 291.791 65.8 289.791 61.4C287.791 57 286.791 52.0333 286.791 46.5V0.999998H289.991V46.9C289.991 52.0333 290.891 56.5333 292.691 60.4C294.491 64.2667 297.258 67.2667 300.991 69.4C304.791 71.5333 309.625 72.6 315.491 72.6C321.425 72.6 326.258 71.5333 329.991 69.4C333.725 67.2667 336.491 64.2667 338.291 60.4C340.091 56.5333 340.991 52.0333 340.991 46.9V0.999998H344.191V46.5C344.191 52.0333 343.191 57 341.191 61.4C339.191 65.8 336.091 69.2667 331.891 71.8C327.691 74.3333 322.225 75.6 315.491 75.6ZM362.986 74V68.8L411.286 3.8L410.486 6.7L408.886 2L410.286 4H363.486V0.999998H413.186V6.2L364.886 71.2L365.686 68.3L367.286 73L365.886 71H414.986V74H362.986ZM383.197 74V68.8L431.497 3.8L430.697 6.7L429.097 2L430.497 4H383.697V0.999998H433.397V6.2L385.097 71.2L385.897 68.3L387.497 73L386.097 71H435.197V74H383.197ZM445.208 74L473.308 0.999998H481.108L510.208 74H506.908L478.408 2.5L481.008 4H473.208L475.808 2.5L448.408 74H445.208ZM457.008 48L458.108 45H496.708L497.908 48H457.008Z" fill="black"/>
</svg>
